<svg width="24" height="45" viewBox="0 0 24 45" fill="none" xmlns="http://www.w3.org/2000/svg">
<g clip-path="url(#clip0_2401_102)">
<path fill-rule="evenodd" clip-rule="evenodd" d="M23.4993 43.7723C23.341 43.9302 23.1529 44.0554 22.9458 44.1408C22.7387 44.2263 22.5167 44.2702 22.2925 44.2702C22.0683 44.2702 21.8463 44.2263 21.6392 44.1408C21.4321 44.0554 21.244 43.9302 21.0857 43.7723L0.631107 23.4352C0.472368 23.2778 0.346428 23.0907 0.260497 22.8848C0.174566 22.6789 0.130333 22.4582 0.130333 22.2353C0.130333 22.0124 0.174566 21.7916 0.260497 21.5857C0.346428 21.3799 0.472368 21.1928 0.631107 21.0354L21.0857 0.698244C21.4057 0.380013 21.8398 0.201234 22.2925 0.201234C22.7451 0.201234 23.1792 0.380013 23.4993 0.698244C23.8194 1.01648 23.9992 1.44809 23.9992 1.89814C23.9992 2.34818 23.8194 2.7798 23.4993 3.09803L4.24815 22.2353L23.4993 41.3726C23.658 41.53 23.784 41.717 23.8699 41.9229C23.9558 42.1288 24.0001 42.3495 24.0001 42.5725C24.0001 42.7954 23.9558 43.0161 23.8699 43.222C23.784 43.4279 23.658 43.6149 23.4993 43.7723V43.7723Z" fill="white"/>
</g>
<defs>
<clipPath id="clip0_2401_102">
<rect width="24" height="44.4706" fill="white" transform="translate(24 44.4706) rotate(-180)"/>
</clipPath>
</defs>
</svg>
